<svg viewBox="0 0 512 512" xmlns="http://www.w3.org/2000/svg"><g id="Layer_6" data-name="Layer 6"><path d="m97.7 503.54a1485.25 1485.25 0 0 0 316.6 0c43-5 84.25-46.23 89.24-89.24a1485.25 1485.25 0 0 0 0-316.6c-5-43-46.23-84.25-89.24-89.24a1485.25 1485.25 0 0 0 -316.6 0c-43 5-84.25 46.23-89.24 89.24a1485.25 1485.25 0 0 0 0 316.6c4.99 43.01 46.23 84.25 89.24 89.24z" fill="#dd4247"/><path d="m120.56 400.82c153.63 0 278.17-124.54 278.17-278.16a277.11 277.11 0 0 0 -26.26-118.08 1484.86 1484.86 0 0 0 -274.77 3.88c-43 5-84.25 46.23-89.24 89.24a1484.72 1484.72 0 0 0 -3.62 278 277 277 0 0 0 115.72 25.12z" fill="#e55353"/><path d="m217 114.13a39 39 0 0 1 78 0v168.64a39 39 0 0 1 -78 0zm.65 262.8a23.6 23.6 0 0 1 18.35-18.33 131.1 131.1 0 0 1 40.07 0 23.6 23.6 0 0 1 18.31 18.4 131.1 131.1 0 0 1 0 40.07 23.6 23.6 0 0 1 -18.38 18.29 122 122 0 0 1 -20 1.55 122.74 122.74 0 0 1 -20-1.55 23.6 23.6 0 0 1 -18.38-18.36 131.1 131.1 0 0 1 0-40.07z" fill="#fff"/></g></svg>