<?xml version="1.0" encoding="UTF-8"?>
<svg xmlns="http://www.w3.org/2000/svg" id="Layer_1" data-name="Layer 1" viewBox="0 0 24 24">
  <path d="m23.854,23.146l-6.443-6.443c1.607-1.775,2.596-4.12,2.596-6.697C20.006,4.492,15.52.006,10.006.006S.006,4.492.006,10.006s4.486,10,10,10c2.577,0,4.922-.988,6.697-2.596l6.443,6.443c.098.098.226.146.354.146s.256-.049.354-.146c.195-.195.195-.512,0-.707Zm-13.848-4.141c-4.962,0-9-4.038-9-9S5.043,1.006,10.006,1.006s9,4.038,9,9-4.037,9-9,9Zm4.848-12.152l-1.146,1.146,1.146,1.146c.195.195.195.512,0,.707-.098.098-.226.146-.354.146s-.256-.049-.354-.146l-1.146-1.146-1.146,1.146c-.098.098-.226.146-.354.146s-.256-.049-.354-.146c-.195-.195-.195-.512,0-.707l1.146-1.146-1.146-1.146c-.195-.195-.195-.512,0-.707s.512-.195.707,0l1.146,1.146,1.146-1.146c.195-.195.512-.195.707,0s.195.512,0,.707Zm-9.354,3.146c-.128,0-.256-.049-.354-.146-.195-.195-.195-.512,0-.707l1.146-1.146-1.146-1.146c-.195-.195-.195-.512,0-.707s.512-.195.707,0l1.146,1.146,1.146-1.146c.195-.195.512-.195.707,0s.195.512,0,.707l-1.146,1.146,1.146,1.146c.195.195.195.512,0,.707-.098.098-.226.146-.354.146s-.256-.049-.354-.146l-1.146-1.146-1.146,1.146c-.098.098-.226.146-.354.146Zm8.949,4.953c-.093.159-.261.248-.432.248-.086,0-.173-.022-.252-.068-2.569-1.501-4.957-1.503-7.532,0-.237.14-.544.06-.684-.18-.139-.238-.059-.544.18-.684,2.884-1.684,5.661-1.683,8.54,0,.238.139.319.445.18.684Z"/>
</svg>
