<svg viewBox="0 0 512 512" xmlns="http://www.w3.org/2000/svg"><g id="Layer_2" data-name="Layer 2"><g id="Layer_1_copy_8" data-name="Layer 1 copy 8"><g id="_125" data-name="125"><path d="m228.2 132.23a95.33 95.33 0 1 0 95.33 95.33 95.44 95.44 0 0 0 -95.33-95.33zm-21.84 120.7a21.12 21.12 0 0 1 -29.87 29.87 78.21 78.21 0 0 1 0-110.47 21.12 21.12 0 1 1 29.87 29.86 35.92 35.92 0 0 0 0 50.74z"/><path d="m391.32 0h-270.64a120.68 120.68 0 0 0 -120.68 120.68v270.64a120.68 120.68 0 0 0 120.68 120.68h270.64a120.68 120.68 0 0 0 120.68-120.68v-270.64a120.68 120.68 0 0 0 -120.68-120.68zm23.86 415.81a21.1 21.1 0 0 1 -29.86 0l-76.71-76.7a136.82 136.82 0 0 1 -80.41 26c-75.85 0-137.56-61.71-137.56-137.56s61.71-137.55 137.56-137.55 137.56 61.71 137.56 137.56a136.84 136.84 0 0 1 -27.09 81.88l76.51 76.56a21.11 21.11 0 0 1 0 29.81z"/></g></g></g></svg>