<svg height="512" viewBox="0 0 512 512" width="512" xmlns="http://www.w3.org/2000/svg"><g id="Layer_2" data-name="Layer 2"><g id="moon"><path d="m256 0c-141.38 0-256 114.62-256 256s114.62 256 256 256 256-114.62 256-256-114.62-256-256-256zm132.94 306.14c-12.16 26.14-30.76 46.37-56 60.37a129.92 129.92 0 0 1 -63.03 16.49c-36.4-.45-67.56-12.93-93-38.17-26.13-26-39.68-57.81-38.73-94.87 1.26-49.11 23.82-86.24 65.56-111.71 16.86-10.29 35.45-15.68 55.14-17.2 4.7-.37 5.9 1.35 4.05 5.68a120.28 120.28 0 0 0 -10 48.49c.23 32.75 11.2 61.52 33.69 85.46 23.18 24.68 51.83 38 85.76 39.62 4.14.2 8.31 0 12.46 0 4.8-.03 6.03 1.7 4.1 5.84z"/></g></g></svg>