<svg id="Layer_2" height="512" viewBox="0 0 16 16" width="512" xmlns="http://www.w3.org/2000/svg" data-name="Layer 2"><path d="m12.6469 9.94a3.96 3.96 0 0 0 .8531-2.44 4 4 0 1 0 -4 4 3.96 3.96 0 0 0 2.44-.8531l2.7067 2.7066a.5.5 0 0 0 .707-.707zm-6.1469-2.44a3 3 0 1 1 3 3 3.0033 3.0033 0 0 1 -3-3z"/><path d="m15 1.5h-14a.5.5 0 0 0 0 1h14a.5.5 0 0 0 0-1z"/><path d="m1 8.5h3a.5.5 0 0 0 0-1h-3a.5.5 0 0 0 0 1z"/><path d="m1 11.5h3a.5.5 0 0 0 0-1h-3a.5.5 0 0 0 0 1z"/><path d="m1 14.5h11a.5.5 0 0 0 0-1h-11a.5.5 0 0 0 0 1z"/><path d="m1 5.5h3a.5.5 0 0 0 0-1h-3a.5.5 0 0 0 0 1z"/></svg>