<svg id="Layer_1" enable-background="new 0 0 239 241.195" height="241.195" viewBox="0 0 239 241.195" width="239" xmlns="http://www.w3.org/2000/svg"><path d="m190.268 59.846h21.232c11 0 20 9 20 20v133.852c0 11-9 20-20 20h-184c-11 0-20-9-20-20v-133.852c0-11 9-20 20-20h84.756" fill="#f0f0ff"/><g><path d="m66.326 119.524 55.234 44.733c1.703 1.379 3.924 1.944 6.08 1.548 2.153-.396 4.027-1.716 5.127-3.611l87.607-150.928c2.079-3.583.861-8.172-2.723-10.251-3.582-2.08-8.172-.861-10.25 2.721l-87.607 150.93c1.1-1.896 2.975-3.215 5.128-3.611 2.155-.396 4.376.169 6.078 1.548l-55.235-44.732c-3.219-2.607-7.941-2.111-10.548 1.108-2.606 3.217-2.11 7.938 1.109 10.545z" fill="#6e6e96"/></g><g enable-background="new" opacity=".2"><path d="m210.5 61.346h-27.232v15l-52.268 82.252-20-2.5 28 20.5 58.5-100.252h13c6.893 0 16.5 5.607 16.5 12.5h7c0-15.163-8.337-27.5-23.5-27.5zm-94.244 0h-89.756c-15.164 0-22.5 12.336-22.5 27.5h8c0-6.893 7.607-12.5 14.5-12.5h89.756z" fill="#6e6e96"/></g><path d="m8.5 220.638h217.686v7.936h-217.686z" fill="#fff"/><path d="m190.268 64.846h21.232c8.271 0 15 6.729 15 15v133.852c0 8.271-6.729 15-15 15h-184c-8.271 0-15-6.729-15-15v-133.852c0-8.271 6.729-15 15-15h84.756c2.761 0 5-2.239 5-5s-2.239-5-5-5h-84.756c-13.785 0-25 11.215-25 25v133.852c0 13.785 11.215 25 25 25h184c13.785 0 25-11.215 25-25v-133.852c0-13.785-11.215-25-25-25h-21.232c-2.762 0-5 2.239-5 5s2.238 5 5 5z" fill="#6e6e96"/></svg>