<svg id="Layer_1" enable-background="new 0 0 512 512" viewBox="0 0 512 512" xmlns="http://www.w3.org/2000/svg" xmlns:xlink="http://www.w3.org/1999/xlink"><linearGradient id="SVGID_1_" gradientUnits="userSpaceOnUse" x1="31.23" x2="480.357" y1="31.23" y2="480.357"><stop offset="0" stop-color="#7b7da1"/><stop offset=".3104" stop-color="#6d6f93"/><stop offset=".8987" stop-color="#494c6d"/><stop offset="1" stop-color="#424566"/></linearGradient><linearGradient id="lg1"><stop offset=".7889" stop-color="#424566" stop-opacity="0"/><stop offset=".9077" stop-color="#36395f" stop-opacity=".563"/><stop offset="1" stop-color="#292d57"/></linearGradient><radialGradient id="SVGID_2_" cx="-947.121" cy="1423.631" gradientTransform="matrix(0 1 .815 0 -937.953 1200.823)" gradientUnits="userSpaceOnUse" r="362.047" xlink:href="#lg1"/><radialGradient id="SVGID_3_" cx="-15438.269" cy="226.894" gradientTransform="matrix(-1 0 0 .815 -15202.439 41.895)" gradientUnits="userSpaceOnUse" r="362.047" xlink:href="#lg1"/><linearGradient id="lg2"><stop offset=".6871" stop-color="#7b7da1" stop-opacity="0"/><stop offset=".7564" stop-color="#7f81a5" stop-opacity=".249"/><stop offset=".8272" stop-color="#8a8db1" stop-opacity=".504"/><stop offset=".8984" stop-color="#9da0c6" stop-opacity=".76"/><stop offset=".9653" stop-color="#b6b9e0"/></linearGradient><radialGradient id="SVGID_4_" cx="260.851" cy="290.213" gradientTransform="matrix(1 0 0 .815 0 53.587)" gradientUnits="userSpaceOnUse" r="370.844" xlink:href="#lg2"/><radialGradient id="SVGID_5_" cx="-939.972" cy="1491.035" gradientTransform="matrix(0 1 .815 0 -925.507 1200.823)" gradientUnits="userSpaceOnUse" r="370.844" xlink:href="#lg2"/><linearGradient id="lg3"><stop offset="0" stop-color="#e9edff"/><stop offset="1" stop-color="#c4cbff"/></linearGradient><linearGradient id="SVGID_6_" gradientUnits="userSpaceOnUse" x1="170.177" x2="325.949" xlink:href="#lg3" y1="271.451" y2="427.222"/><linearGradient id="SVGID_7_" gradientUnits="userSpaceOnUse" x1="256" x2="256" y1="419.032" y2="381.229"><stop offset="0" stop-color="#8c9aff"/><stop offset=".2312" stop-color="#98a4ff" stop-opacity=".769"/><stop offset=".6625" stop-color="#a7b2ff" stop-opacity=".338"/><stop offset="1" stop-color="#adb7ff" stop-opacity="0"/></linearGradient><radialGradient id="SVGID_8_" cx="257.021" cy="372.841" gradientTransform="matrix(1 0 0 .761 0 89.24)" gradientUnits="userSpaceOnUse" r="155.492"><stop offset=".752" stop-color="#fff" stop-opacity="0"/><stop offset="1" stop-color="#fff"/></radialGradient><linearGradient id="SVGID_9_" gradientUnits="userSpaceOnUse" x1="254.725" x2="254.725" xlink:href="#lg3" y1="97.93" y2="218.245"/><radialGradient id="SVGID_10_" cx="258.183" cy="163.316" gradientUnits="userSpaceOnUse" r="69.492"><stop offset=".7023" stop-color="#fff" stop-opacity="0"/><stop offset="1" stop-color="#fff"/></radialGradient><radialGradient id="SVGID_11_" cx="242.406" cy="147.538" gradientTransform="matrix(.707 .707 -.588 .588 157.722 -110.591)" gradientUnits="userSpaceOnUse" r="82.941"><stop offset=".6008" stop-color="#99acff" stop-opacity="0"/><stop offset=".9576" stop-color="#99acff" stop-opacity=".894"/><stop offset="1" stop-color="#99acff"/></radialGradient><g><g><path d="m512 256c-1.5 85.6-16.6 154.5-59.7 196.3-41.8 43.1-110.7 58.2-196.3 59.7-85.6-1.5-154.5-16.6-196.3-59.7-43.1-41.8-58.2-110.7-59.7-196.3 1.5-85.6 16.6-154.5 59.7-196.3 41.8-43.1 110.7-58.2 196.3-59.7 85.6 1.5 154.5 16.6 196.3 59.7 43.1 41.8 58.2 110.7 59.7 196.3z" fill="url(#SVGID_1_)"/><g><path d="m256 512c85.6-1.5 154.5-16.6 196.3-59.7 43.1-41.8 58.2-110.7 59.7-196.3-1.5-85.6-16.6-154.5-59.7-196.3-41.8-43.1-110.7-58.2-196.3-59.7-85.6 1.5-154.5 16.6-196.3 59.7-43.1 41.8-58.2 110.7-59.7 196.3 1.5 85.6 16.6 154.5 59.7 196.3 41.8 43.1 110.7 58.2 196.3 59.7z" fill="url(#SVGID_2_)"/><path d="m0 256c1.5 85.6 16.6 154.5 59.7 196.3 41.8 43.1 110.7 58.2 196.3 59.7 85.6-1.5 154.5-16.6 196.3-59.7 43.1-41.8 58.2-110.7 59.7-196.3-1.5-85.6-16.6-154.5-59.7-196.3-41.8-43.1-110.7-58.2-196.3-59.7-85.6 1.5-154.5 16.6-196.3 59.7-43.1 41.8-58.2 110.7-59.7 196.3z" fill="url(#SVGID_3_)"/><path d="m512 256c-1.5 85.6-16.6 154.5-59.7 196.3-41.8 43.1-110.7 58.2-196.3 59.7-85.6-1.5-154.5-16.6-196.3-59.7-43.1-41.8-58.2-110.7-59.7-196.3 1.5-85.6 16.6-154.5 59.7-196.3 41.8-43.1 110.7-58.2 196.3-59.7 85.6 1.5 154.5 16.6 196.3 59.7 43.1 41.8 58.2 110.7 59.7 196.3z" fill="url(#SVGID_4_)"/><path d="m256 512c85.6-1.5 154.5-16.6 196.3-59.7 43.1-41.8 58.2-110.7 59.7-196.3-1.5-85.6-16.6-154.5-59.7-196.3-41.8-43.1-110.7-58.2-196.3-59.7-85.6 1.5-154.5 16.6-196.3 59.7-43.1 41.8-58.2 110.7-59.7 196.3 1.5 85.6 16.6 154.5 59.7 196.3 41.8 43.1 110.7 58.2 196.3 59.7z" fill="url(#SVGID_5_)"/></g></g><path d="m404.1 384.2c0 23.6-19.1 42.7-42.7 42.7h-190.1c-23.6 0-42.7-19.1-42.7-42.7l.1-23.8c2.6-50.9 63.2-91.5 137.7-91.5s135.1 40.7 137.7 91.6zm-139-277.5c-35.5 0-64.2 28.8-64.2 64.2s28.8 64.2 64.2 64.2 64.2-28.8 64.2-64.2-28.8-64.2-64.2-64.2z" fill="#424566"/><g><g><path d="m393.7 349.7c-2.6-50.9-63.3-91.6-137.7-91.6-74.5 0-135.1 40.6-137.7 91.5l-.1 23.8c0 23.6 19.1 42.7 42.7 42.7h190.2c23.6 0 42.7-19.1 42.7-42.7z" fill="url(#SVGID_6_)"/><path d="m393.7 349.7c-2.6-50.9-63.3-91.6-137.7-91.6-74.5 0-135.1 40.6-137.7 91.5l-.1 23.8c0 23.6 19.1 42.7 42.7 42.7h190.2c23.6 0 42.7-19.1 42.7-42.7z" fill="url(#SVGID_7_)"/><path d="m393.7 349.7c-2.6-50.9-63.3-91.6-137.7-91.6-74.5 0-135.1 40.6-137.7 91.5l-.1 23.8c0 23.6 19.1 42.7 42.7 42.7h190.2c23.6 0 42.7-19.1 42.7-42.7z" fill="url(#SVGID_8_)"/></g><g><circle cx="254.7" cy="160.1" fill="url(#SVGID_9_)" r="64.2"/><circle cx="254.7" cy="160.1" fill="url(#SVGID_10_)" r="64.2"/><circle cx="254.7" cy="160.1" fill="url(#SVGID_11_)" r="64.2"/></g></g></g></svg>