<svg id="expanded" enable-background="new 0 0 512 512" height="512" viewBox="0 0 512 512" width="512" xmlns="http://www.w3.org/2000/svg"><g><g><path d="m362.346 484.699h-212.69c-67.464 0-122.351-54.886-122.351-122.35v-212.699c0-67.464 54.886-122.35 122.351-122.35h212.69c67.464 0 122.35 54.886 122.35 122.35v212.7c-.001 67.463-54.886 122.349-122.35 122.349zm-212.69-425.398c-49.819 0-90.351 40.53-90.351 90.35v212.699c0 49.819 40.531 90.35 90.351 90.35h212.69c49.819 0 90.35-40.53 90.35-90.35v-212.7c0-49.819-40.53-90.35-90.35-90.35h-212.69z"/></g><g><path d="m255.996 345.551c-49.378 0-89.55-40.172-89.55-89.551s40.172-89.551 89.55-89.551c49.383 0 89.559 40.172 89.559 89.551s-40.176 89.551-89.559 89.551zm0-147.102c-31.733 0-57.55 25.817-57.55 57.551s25.817 57.551 57.55 57.551c31.738 0 57.559-25.817 57.559-57.551s-25.822-57.551-57.559-57.551z"/></g><g><path d="m255.996 147.971c-8.836 0-16-7.163-16-16v-27.701c0-8.837 7.164-16 16-16s16 7.163 16 16v27.701c0 8.837-7.164 16-16 16z"/></g><g><path d="m343.705 184.301c-4.095 0-8.189-1.562-11.313-4.687-6.249-6.248-6.249-16.379 0-22.627l19.59-19.59c6.248-6.248 16.379-6.248 22.627 0 6.249 6.248 6.249 16.379 0 22.627l-19.59 19.59c-3.124 3.124-7.219 4.687-11.314 4.687z"/></g><g><path d="m407.736 272h-27.701c-8.837 0-16-7.163-16-16s7.163-16 16-16h27.701c8.837 0 16 7.163 16 16s-7.163 16-16 16z"/></g><g><path d="m363.295 379.301c-4.095 0-8.189-1.562-11.313-4.687l-19.59-19.59c-6.249-6.248-6.249-16.379 0-22.627 6.248-6.248 16.379-6.248 22.627 0l19.59 19.59c6.249 6.248 6.249 16.379 0 22.627-3.125 3.124-7.219 4.687-11.314 4.687z"/></g><g><path d="m255.996 423.74c-8.836 0-16-7.163-16-16v-27.699c0-8.837 7.164-16 16-16s16 7.163 16 16v27.699c0 8.837-7.164 16-16 16z"/></g><g><path d="m148.706 379.301c-4.095 0-8.189-1.562-11.313-4.687-6.249-6.248-6.249-16.379 0-22.627l19.59-19.59c6.248-6.248 16.379-6.248 22.627 0 6.249 6.248 6.249 16.379 0 22.627l-19.59 19.59c-3.125 3.124-7.22 4.687-11.314 4.687z"/></g><g><path d="m131.965 272h-27.699c-8.836 0-16-7.163-16-16s7.164-16 16-16h27.699c8.836 0 16 7.163 16 16s-7.163 16-16 16z"/></g><g><path d="m168.295 184.301c-4.095 0-8.189-1.562-11.313-4.687l-19.59-19.59c-6.249-6.248-6.249-16.379 0-22.627 6.248-6.248 16.379-6.248 22.627 0l19.59 19.59c6.249 6.248 6.249 16.379 0 22.627-3.124 3.124-7.219 4.687-11.314 4.687z"/></g></g></svg>