<svg id="Layer_1" enable-background="new 0 0 24 24" height="512" viewBox="0 0 24 24" width="512" xmlns="http://www.w3.org/2000/svg"><g><path d="m15 22h-11c-1.1 0-2-.9-2-2v-11c0-.6.4-1 1-1s1 .4 1 1v11h11c.6 0 1 .4 1 1s-.4 1-1 1z"/></g><g><path d="m20 18h-12c-1.1 0-2-.9-2-2v-12c0-1.1.9-2 2-2h12c1.1 0 2 .9 2 2v12c0 1.1-.9 2-2 2zm-12-14v12h12v-12z"/></g><g><path d="m13 13c-.3 0-.5-.1-.7-.3l-2-2c-.4-.4-.4-1 0-1.4s1-.4 1.4 0l1.3 1.3 3.3-3.3c.4-.4 1-.4 1.4 0s.4 1 0 1.4l-4 4c-.2.2-.4.3-.7.3z"/></g></svg>