<svg enable-background="new 0 0 160 160" height="160" viewBox="0 0 160 160" width="160" xmlns="http://www.w3.org/2000/svg"><g id="Line_icons"><path d="m-506.268-971.507h3160v2608h-3160z" fill="#fff"/><g><g><g><g><g><g><g><path d="m80 159.962c-20.486 0-40.973-7.798-56.569-23.395-31.192-31.191-31.192-81.944 0-113.136 15.111-15.109 35.2-23.431 56.569-23.431s41.458 8.322 56.568 23.433c15.11 15.109 23.432 35.198 23.432 56.568 0 21.368-8.322 41.458-23.432 56.567-15.596 15.597-36.082 23.394-56.568 23.394zm-49.497-30.464c27.293 27.291 71.702 27.291 98.995 0 13.221-13.222 20.502-30.8 20.502-49.497 0-18.698-7.281-36.276-20.503-49.498-13.221-13.222-30.799-20.503-49.497-20.503s-36.276 7.281-49.498 20.503c-27.291 27.291-27.288 71.701.001 98.995z" fill="#82368c"/></g></g></g></g></g><g><path d="m107.512 112.511c-1.28 0-2.559-.488-3.536-1.465l-55.023-55.022c-1.953-1.952-1.953-5.118 0-7.07 1.953-1.953 5.118-1.953 7.071 0l55.023 55.022c1.953 1.952 1.953 5.118 0 7.07-.976.977-2.255 1.465-3.535 1.465z" fill="#82368c"/></g></g><g><g><path d="m52.488 112.511c-1.28 0-2.559-.488-3.536-1.465-1.953-1.952-1.953-5.118 0-7.07l55.023-55.022c1.954-1.953 5.119-1.952 7.071 0s1.953 5.118 0 7.07l-55.023 55.022c-.976.977-2.255 1.465-3.535 1.465z" fill="#82368c"/></g></g></g></g><g id="Raster" display="none"><path d="m148 160h-136c-6.627 0-12-5.373-12-12v-136c0-6.627 5.373-12 12-12h136c6.627 0 12 5.373 12 12v136c0 6.627-5.373 12-12 12z" display="inline" fill="#e6007e" opacity=".3"/></g></svg>