<svg id="Layer_1" enable-background="new 0 0 511.719 511.719" height="512" viewBox="0 0 511.719 511.719" width="512" xmlns="http://www.w3.org/2000/svg"><g><path d="m169.713 264.431c8.433 0 15.27-6.84 15.27-15.278-.804-20.267-29.738-20.261-30.54 0 0 8.437 6.837 15.278 15.27 15.278z"/><path d="m333.11 264.431c8.433 0 15.27-6.84 15.27-15.278-.804-20.267-29.738-20.261-30.54 0 0 8.437 6.837 15.278 15.27 15.278z"/><path d="m251.115 365.268c20.994 0 40.315-7.66 54.403-21.57 5.897-5.822 5.96-15.324.141-21.225-5.818-5.899-15.316-5.962-21.212-.141-15.998 16.517-48.563 17.777-66.165-.162-14.936-13.194-34.563 7.373-20.738 21.69 14.423 13.805 33.448 21.408 53.571 21.408z"/><path d="m317.84 0h-123.961c-98.164 0-178.026 79.906-178.026 178.123v318.587c0 8.289 6.716 15.008 15 15.008h450.012c8.284 0 15-6.72 15-15.008v-318.587c0-98.217-79.862-178.123-178.025-178.123zm-5.036 481.702h-122.712v-34.848c37.71 14.76 84.667 15.198 122.712 1.097zm88.422-271.621v69.842c-8.17 196.88-288.478 196.728-296.575 0v-69.867zm-102.861-30.041 17.641-50.432 18.158 50.432zm167.5 301.662h-123.061v-47.768c52.849-30.991 88.421-88.419 88.421-154.011v-84.843c0-8.286-6.711-15.004-14.992-15.008l-50.18-.026-36.138-100.374c-2.144-5.954-7.791-9.921-14.112-9.921h-.069c-6.349.029-11.992 4.054-14.089 10.05l-35.064 100.24h-176.93c-8.284 0-15 6.72-15 15.008v84.875c0 64.353 34.238 120.851 85.441 152.231v49.548h-114.239v-303.58c0-81.666 66.404-148.107 148.025-148.107h123.962c81.621 0 148.025 66.441 148.025 148.107z"/></g></svg>