<svg id="Capa_1" enable-background="new 0 0 512 512" height="512" viewBox="0 0 512 512" width="512" xmlns="http://www.w3.org/2000/svg"><g><g><g><g><g><g><g><g><circle cx="256" cy="256" fill="#ffc3d2" r="256"/></g></g></g></g></g></g></g><path d="m330.12 88.972-125.908 11.283-14.955 135.191 88.096 88.096-95.473 73.578 112.083 112.083c118.725-17.649 210.851-116.814 217.636-238.753z" fill="#ff96b4"/><path d="m281 257.337c44.078-11.172 76.788-51.175 76.788-98.678 0-56.126-45.662-101.788-101.788-101.788s-101.788 45.662-101.788 101.788c0 47.503 32.71 87.506 76.788 98.678v89.785h-49.12v50h49.12v45.007h50v-45.007h49.12v-50h-49.12zm-76.788-98.678c0-28.556 23.232-51.788 51.788-51.788s51.788 23.232 51.788 51.788-23.232 51.788-51.788 51.788-51.788-23.232-51.788-51.788z" fill="#ff73a5"/><path d="m281 257.341c44.079-11.172 76.788-51.179 76.788-98.682 0-56.126-45.662-101.788-101.788-101.788-.119 0-.237.004-.356.005v50.005c.119-.001.237-.009.356-.009 28.556 0 51.788 23.232 51.788 51.788s-23.232 51.788-51.788 51.788c-.119 0-.237-.008-.356-.009v231.691h25.356v-45.007h49.12v-50h-49.12z" fill="#ff468c"/></g></svg>