<svg id="Layer_1" enable-background="new 0 0 512 512" height="512" viewBox="0 0 512 512" width="512" xmlns="http://www.w3.org/2000/svg"><g><path d="m251.068 0c-49.912 0-95.552 16.217-132.193 43.756-62.732 47.149-94.11 125.844-85.424 202.675l2.949 56.282v149.755c0 32.879 26.654 59.532 59.532 59.532h318.021c32.827 0 59.459-26.573 59.532-59.4l.329-148.651 1.433-59.837c3.887-121.298-75.182-244.112-224.179-244.112z" fill="#963823"/><path d="m254.139 0v435.853l-.273 76.058 160.087-.426c32.827 0 59.459-26.573 59.532-59.4l.329-148.651 1.433-59.837c3.86-120.458-74.105-241.911-221.108-243.597z" fill="#5c1b00"/><g><path d="m319.043 414.735h-128.882c-7.467 0-13.52 6.053-13.52 13.52v70.224c0 7.467 6.053 13.52 13.52 13.52h128.882c7.467 0 13.52-6.053 13.52-13.52v-70.224c0-7.467-6.053-13.52-13.52-13.52z" fill="#ffe1d0"/><path d="m254.127 512h65.757c7.002 0 12.679-5.676 12.679-12.679v-84.586h-78.436z" fill="#ffbfbc"/></g><path d="m50.075 244.435c-20.223 0-36.616 16.432-36.616 36.703 0 20.27 16.394 36.703 36.616 36.703h71.805l-12.912-73.405h-58.893z" fill="#ffe1d0"/><path d="m461.925 244.435h-56.586l-4.194 73.405h60.78c20.223 0 36.616-16.432 36.616-36.703.001-20.27-16.393-36.702-36.616-36.702z" fill="#ffbfbc"/><path d="m420.807 292.521c-19.47-29.049-29.73-119.075-34.954-136.495-2.14-7.138-11.378-8.991-16.141-3.261-16.075 19.339-52.705 46.681-129.249 40.606-40.934-3.249-71.029-.623-93.007 4.402-33.031 7.552-56.281 37.214-56.303 71.097l-.015 23.65c0 91.042 73.804 164.847 164.847 164.847 91.042 0 164.847-73.804 164.847-164.847h-.025z" fill="#fcede6"/><path d="m254.075 194.117v263.226c.637.007 1.272.024 1.91.024h.001c91.042 0 164.846-73.804 164.846-164.846l-.017-41.713c-.005-13.414-3.523-26.605-10.237-38.219-12.997-22.485-20.505-42.488-24.726-56.563-2.14-7.138-11.378-8.991-16.141-3.261-15.09 18.155-48.299 43.359-115.636 41.352z" fill="#ffe1d0"/><ellipse cx="166.331" cy="271.448" fill="#093330" rx="16.449" ry="16.488"/><ellipse cx="342.35" cy="271.448" fill="#001200" rx="16.449" ry="16.488"/><g><path d="m255.656 402.644c-20.815 0-40.494-7.86-55.412-22.131-6.192-5.923-6.41-15.745-.487-21.937 5.924-6.192 15.745-6.41 21.937-.487 6.449 6.169 17.576 13.524 33.961 13.524 18.224 0 29.423-8.367 34.478-13.355 6.1-6.02 15.922-5.954 21.942.145 6.018 6.099 5.954 15.923-.145 21.942-14.573 14.379-34.557 22.299-56.274 22.299z" fill="#ffbfbc"/></g><g><path d="m208.705 143.291c-.199 0-.398-.003-.599-.012l-90.16-3.539c-8.278-.325-14.725-7.299-14.4-15.577.324-8.278 7.272-14.727 15.577-14.4l90.16 3.539c8.278.325 14.725 7.299 14.4 15.577-.317 8.077-6.966 14.412-14.978 14.412z" fill="#ffbaff"/></g><g><path d="m130.49 172.147c-4.037 0-8.061-1.619-11.018-4.817-5.624-6.083-5.251-15.573.832-21.197l66.255-61.251c6.083-5.623 15.573-5.251 21.197.832s5.251 15.573-.832 21.197l-66.255 61.251c-2.884 2.666-6.537 3.985-10.179 3.985z" fill="#e2a0f7"/></g><path d="m254.075 371.569v31.038c.527.01 1.052.037 1.581.037 21.717 0 41.701-7.919 56.273-22.299 6.099-6.019 6.164-15.843.145-21.942-6.02-6.099-15.842-6.165-21.942-.145-5.055 4.988-16.254 13.355-34.478 13.355-.536 0-1.053-.029-1.579-.044z" fill="#ff9aa7"/></g></svg>