<svg id="Layer_1" enable-background="new 0 0 32 32" height="32" viewBox="0 0 32 32" width="32" xmlns="http://www.w3.org/2000/svg"><path d="m0 6v20c0 2.2 1.8 4 4 4h24c2.2 0 4-1.8 4-4v-20c0-2.2-1.8-4-4-4h-24c-2.2 0-4 1.8-4 4zm28 4c0 2.209-1.791 4-4 4s-4-1.791-4-4 1.791-4 4-4 4 1.791 4 4zm-24 14c0-.734.25-1.041.979-2l5.021-6.766c.469-.578 1.016-1.234 2-1.234 1.016 0 1.437.583 2 1.292l4 5.25 2-1.542c.672-.531 1.188-1 2-1s1.281.391 2 1.109l2.875 2.891c.781.797 1.125 1.219 1.125 2 0 1.109-.891 2-2 2h-20c-1.125 0-2-.875-2-2z"/></svg>