<svg id="SVGRoot" height="512" viewBox="0 0 512 512" width="512" xmlns="http://www.w3.org/2000/svg" xmlns:svg="http://www.w3.org/2000/svg"><g id="g5181" clip-rule="evenodd" fill-rule="evenodd" stroke-linecap="round" stroke-linejoin="round" stroke-miterlimit="10" transform="translate(6.555 -3.646)"><path id="path5158" d="m58.888672 10.666016c-36.065724 0-65.4433595 29.377447-65.4433595 65.443359v403.531245c.0000734 22.09522 25.1766225 36.35034 44.1230465 24.98243l85.304691-51.1836c13.56471-8.13883 29.08529-12.43755 44.90429-12.4375h272.22266c36.06571 0 65.44531-29.37941 65.44531-65.44531v-299.447265c0-36.065914-29.3796-65.443359-65.44531-65.443359z" fill="#5c6bc0" stroke-width="22"/><path id="path5161" d="m418 10.666016c36.06567 0 65.44531 29.377481 65.44531 65.443359v299.447265c0 36.06586-29.37964 65.44531-65.44531 65.44531h22c36.06567 0 65.44531-29.37945 65.44531-65.44531v-299.447265c0-36.065878-29.37964-65.443359-65.44531-65.443359zm-272.22266 430.335934c-15.81898-.00005-31.3396 4.29868-44.90429 12.4375l-85.304691 51.1836c-1.157377.69443-2.338441 1.28767-3.535156 1.79492 7.98478 3.23163 17.339985 3.1222 25.535156-1.79492l85.304691-51.1836c13.56469-8.13882 29.08531-12.43755 44.90429-12.4375z" fill="#3f51b5" stroke-width="22"/><path id="path5164" d="m249.44336 310.10938c-20.97972 0-38.2207 17.24292-38.2207 38.22265 0 20.97974 17.24098 38.22266 38.2207 38.22266s38.22461-17.24292 38.22461-38.22266c0-20.97973-17.24489-38.22265-38.22461-38.22265z" fill="#e8eaf6" stroke-width="22.001"/><path id="path5167" d="m249.44336 310.10938c-3.81826 0-7.51082.57781-11 1.63867 15.68335 4.76811 27.22461 19.42253 27.22461 36.58398 0 17.16146-11.54126 31.81587-27.22461 36.58399 3.48918 1.06085 7.18174 1.63867 11 1.63867 20.9797 0 38.22461-17.24294 38.22461-38.22266 0-20.97971-17.24491-38.22266-38.22461-38.22265z" fill="#c5cae9" stroke-width="22.001"/><g stroke-width="22"><path id="path5170" d="m249.44326 65.107422c-20.98463 0-38.22256 17.237918-38.22256 38.222558v136.11488c0 20.98465 17.23793 38.22256 38.22256 38.22256 20.98465 0 38.22256-17.23791 38.22256-38.22256v-136.11488c0-20.98464-17.23791-38.222558-38.22256-38.222558z" fill="#e8eaf6"/><path id="path5173" d="m249.44336 65.107422c-3.81951 0-7.51009.58372-11 1.644531 15.68384 4.767345 27.22266 19.413022 27.22266 36.578127v136.11523c0 17.1651-11.53884 31.80882-27.22266 36.57617 3.48992 1.06082 7.18047 1.64649 11 1.64649 20.98463 0 38.22266-17.23803 38.22266-38.22266v-136.11523c0-20.984621-17.23803-38.222658-38.22266-38.222658z" fill="#c5cae9"/></g></g></svg>