<svg id="Capa_1" enable-background="new 0 0 512 512" height="512" viewBox="0 0 512 512" width="512" xmlns="http://www.w3.org/2000/svg"><g><path d="m454.085 39.776h-364.424l-23.216 10.303-13.736 30.633v289.257l15.796 19.269 23.949 15.536h109.28c7.991 0 15.465 2.963 21.217 7.991h37.168l23.714 5.812c5.934-8.5 15.723-13.803 26.431-13.803h143.82c31.986 0 57.915-25.93 57.915-57.915 0-25.765 0-225.813 0-249.167.001-31.986-25.929-57.916-57.914-57.916z" fill="#6b7ed9"/><g fill="#4d66d2"><path d="m61.411 346.858v-249.167c0-31.985 25.929-57.915 57.915-57.915h-61.411c-31.985 0-57.915 25.93-57.915 57.915v249.167c0 31.986 25.93 57.915 57.915 57.915h61.411c-31.986 0-57.915-25.929-57.915-57.915z"/><path d="m263.146 404.773h-61.411c13.55 0 25.655 8.469 30.299 21.198l14.445 39.591c3.241 8.882 15.803 8.882 19.044 0l14.445-39.591c1.517-4.157 3.84-7.848 6.739-10.95-5.979-6.396-14.437-10.248-23.561-10.248z"/></g><path d="m281.119 313.104h-1.905c-1.506 0-2.726-1.221-2.726-2.726v-112.347c0-11.315-9.173-20.488-20.488-20.488h-6.191l-6.686 2.48-9.272 10.559v9.529l3.606 12.362 8.242 7.726 13.392 2.074v83.689l-14.938 6.954-12.877 15.968v15.195l5.795 5.28 11.575 4.718h32.965c11.563 0 20.888-9.579 20.474-21.234-.395-11.101-9.857-19.739-20.966-19.739z" fill="#dbedff"/><path d="m236.271 332.845c.394-11.102 9.856-19.741 20.965-19.741h1.905c1.506 0 2.726-1.221 2.726-2.726v-89.132c0-1.506-1.221-2.726-2.726-2.726h-2.396c-11.563 0-20.888-9.579-20.474-21.234.387-10.89 9.502-19.388 20.334-19.71-.203-.006-.4-.031-.605-.031h-25.119c-11.109 0-20.571 8.639-20.965 19.741-.414 11.656 8.911 21.234 20.474 21.234h2.396c1.506 0 2.726 1.221 2.726 2.726v89.132c0 1.506-1.221 2.726-2.726 2.726h-1.905c-11.109 0-20.571 8.639-20.965 19.741-.414 11.656 8.911 21.234 20.474 21.234h26.355c-11.563 0-20.889-9.579-20.474-21.234z" fill="#b5dcff"/><path d="m268.748 96.188h-3.992l-8.07 11.464s-7.211 19.745-4.808 22.321c2.404 2.575 6.525 5.322 7.555 6.353 1.03 1.03 9.314 3.955 9.314 3.955 6.622-5.074 10.895-13.06 10.895-22.047.002-8.986-4.272-16.971-10.894-22.046z" fill="#dbedff"/><path d="m257.853 118.235c0-8.987 4.274-16.972 10.895-22.046-4.676-3.584-10.522-5.718-16.869-5.718-15.334 0-27.765 12.431-27.765 27.765s12.431 27.765 27.765 27.765c6.347 0 12.193-2.134 16.869-5.718-6.621-5.076-10.895-13.061-10.895-22.048z" fill="#b5dcff"/></g></svg>