<svg fill="none" height="512" viewBox="0 0 20 20" width="512" xmlns="http://www.w3.org/2000/svg" xmlns:xlink="http://www.w3.org/1999/xlink"><linearGradient id="paint0_linear_3139_261" gradientUnits="userSpaceOnUse" x1="10" x2="10" y1="0" y2="20"><stop offset="0" stop-color="#ee9ae5"/><stop offset="1" stop-color="#5961f9"/></linearGradient><path clip-rule="evenodd" d="m10 0c-5.514 0-10 4.486-10 10s4.486 10 10 10 10-4.486 10-10-4.486-10-10-10zm-1 6c0-.55228.44771-1 1-1 .5523 0 1 .44772 1 1v4c0 .5523-.4477 1-1 1-.55229 0-1-.4477-1-1zm1 9c.5523 0 1-.4477 1-1s-.4477-1-1-1c-.55229 0-1 .4477-1 1s.44771 1 1 1z" fill="url(#paint0_linear_3139_261)" fill-rule="evenodd"/></svg>