<svg id="Layer_1" enable-background="new 0 0 100 100" viewBox="0 0 100 100" xmlns="http://www.w3.org/2000/svg" xmlns:xlink="http://www.w3.org/1999/xlink"><linearGradient id="SVGID_1_" gradientUnits="userSpaceOnUse" x1="-3.642" x2="100.811" y1="-2.473" y2="104.814"><stop offset=".1843576" stop-color="#29abe2"/><stop offset=".8211977" stop-color="#6200d2"/></linearGradient><path d="m10.0773468 97.101532 25.8739204-17.4851074h46.2900658c6.1652679 0 11.1176987-4.9524307 11.1176987-11.1177063v-54.8810168c0-6.1652708-4.9524307-11.1177015-11.1176987-11.1177015h-64.482666c-6.1652718 0-11.1177025 4.9524307-11.1177025 11.1177015v46.4922028 8.2877388 26.7835541c.0000014 1.9203348 2.0214024 2.9310312 3.4363823 1.9203348zm36.4862747-77.3185597h6.8727608c.8085594 0 1.4149818.7074909 1.4149818 1.4149799l-.7074928 24.8953209c0 .7074928-.6064186 1.212841-1.212841 1.212841h-5.7609901c-.7074928 0-1.212841-.5053482-1.212841-1.212841l-.7074928-24.8953228c-.1010629-.8085574.5053557-1.414978 1.3139151-1.414978zm-1.414978 36.8905545c0-1.212841.9096298-2.1224709 2.122467-2.1224709h5.4577827c1.212841 0 2.1224709.9096336 2.1224709 2.1224709v3.5374489c0 1.212841-.9096336 2.122467-2.1224709 2.122467h-5.4577827c-1.212841 0-2.122467-.9096298-2.122467-2.122467z" fill="url(#SVGID_1_)"/></svg>