<svg id="Layer_1" enable-background="new 0 0 24 24" height="512" viewBox="0 0 24 24" width="512" xmlns="http://www.w3.org/2000/svg"><g><path d="m20 18h-9c-.6 0-1-.4-1-1s.4-1 1-1h9c.6 0 1 .4 1 1s-.4 1-1 1z"/></g><g><path d="m5.5 19c-.2 0-.4-.1-.6-.2l-1.5-1c-.5-.3-.6-.9-.3-1.4s.9-.6 1.4-.3l.8.5 1.9-2.3c.4-.4 1-.5 1.4-.1s.5 1 .1 1.4l-2.5 3c-.1.3-.4.4-.7.4z"/></g><g><path d="m20 13h-9c-.6 0-1-.4-1-1s.4-1 1-1h9c.6 0 1 .4 1 1s-.4 1-1 1z"/></g><g><path d="m5.5 14c-.2 0-.4-.1-.6-.2l-1.5-1c-.5-.3-.6-.9-.3-1.4s.9-.6 1.4-.3l.8.5 1.9-2.3c.4-.4 1-.5 1.4-.1s.5 1 .1 1.4l-2.5 3c-.1.3-.4.4-.7.4z"/></g><g><path d="m20 8h-9c-.6 0-1-.4-1-1s.4-1 1-1h9c.6 0 1 .4 1 1s-.4 1-1 1z"/></g><g><path d="m5.5 9c-.2 0-.4-.1-.6-.2l-1.5-1c-.4-.3-.5-.9-.2-1.4.3-.4.9-.5 1.4-.2l.8.5 1.9-2.3c.4-.4 1-.5 1.4-.1s.5 1 .1 1.4l-2.5 3c-.2.2-.5.3-.8.3z"/></g></svg>