<svg enable-background="new 0 0 64 64" height="512" viewBox="0 0 64 64" width="512" xmlns="http://www.w3.org/2000/svg"><g id="Icons"><g><g><path d="m32 58c-14.359 0-26-11.641-26-26 0-14.359 11.641-26 26-26 14.359 0 26 11.641 26 26 0 14.359-11.641 26-26 26z" fill="#64c8f0"/></g><g><path d="m10 32c0-13.686 10.576-24.894 24-25.916-.661-.05-1.326-.084-2-.084-14.359 0-26 11.641-26 26 0 14.359 11.641 26 26 26 .674 0 1.339-.034 2-.084-13.424-1.022-24-12.23-24-25.916z" fill="#46aad2"/></g><g><path d="m34 26.18v-6.18l2 2h4l-8-8-8 8h4l2-2v6.18c-5.673.954-10 5.876-10 11.82 0 6.627 5.373 12 12 12s12-5.373 12-12c0-5.944-4.327-10.866-10-11.82zm-2 19.82c-4.411 0-8-3.589-8-8s3.589-8 8-8 8 3.589 8 8-3.589 8-8 8z" fill="#f0f0f0"/></g></g></g></svg>