<?xml version="1.0" encoding="UTF-8" standalone="no"?>
<!-- Created with Inkscape (http://www.inkscape.org/) -->

<svg
   version="1.1"
   id="svg903"
   xml:space="preserve"
   width="32"
   height="32"
   viewBox="0 0 32 32"
   xmlns="http://www.w3.org/2000/svg"
   xmlns:svg="http://www.w3.org/2000/svg"><defs
     id="defs907"><clipPath
       clipPathUnits="userSpaceOnUse"
       id="clipPath917"><path
         d="M 0,24 H 24 V 0 H 0 Z"
         id="path915" /></clipPath></defs><g
     id="g909"
     transform="matrix(1.3333333,0,0,-1.3333333,0,32)"><g
       id="g911"><g
         id="g913"
         clip-path="url(#clipPath917)"><g
           id="g919"
           transform="translate(11,12.5)"><path
             d="M 0,0 C 0,-0.828 -0.671,-1.5 -1.5,-1.5 -2.329,-1.5 -3,-0.828 -3,0 -3,0.828 -2.329,1.5 -1.5,1.5 -0.671,1.5 0,0.828 0,0"
             style="fill:#000000;fill-opacity:1;fill-rule:nonzero;stroke:none"
             id="path921" /></g><g
           id="g923"
           transform="translate(16,12.5)"><path
             d="M 0,0 C 0,-0.828 -0.672,-1.5 -1.5,-1.5 -2.328,-1.5 -3,-0.828 -3,0 -3,0.828 -2.328,1.5 -1.5,1.5 -0.672,1.5 0,0.828 0,0"
             style="fill:#000000;fill-opacity:1;fill-rule:nonzero;stroke:none"
             id="path925" /></g><g
           id="g927"
           transform="translate(14,19)"><path
             d="m 0,0 c -5,-7 -13,-6 -13,-6 2.333,1.359 2,10 11,10 C 2.647,4 6.471,0.477 6.948,-4.045 8.114,-4.257 9,-5.272 9,-6.5 9,-7.881 7.881,-9 6.5,-9 6.354,-9 6.213,-8.981 6.074,-8.957 5,-12 1.549,-15.002 -2,-15.002 V -15 c -3.171,0 -6.265,2.397 -7.654,5.079"
             style="fill:none;stroke:#000000;stroke-width:2;stroke-linecap:round;stroke-linejoin:round;stroke-miterlimit:10;stroke-dasharray:none;stroke-opacity:1"
             id="path929" /></g><g
           id="g931"
           transform="translate(15,4.4355)"><path
             d="M 0,0 V -3.436"
             style="fill:none;stroke:#000000;stroke-width:2;stroke-linecap:round;stroke-linejoin:round;stroke-miterlimit:10;stroke-dasharray:none;stroke-opacity:1"
             id="path933" /></g><g
           id="g935"
           transform="translate(9,4.4355)"><path
             d="M 0,0 V -3.436"
             style="fill:none;stroke:#000000;stroke-width:2;stroke-linecap:round;stroke-linejoin:round;stroke-miterlimit:10;stroke-dasharray:none;stroke-opacity:1"
             id="path937" /></g></g></g></g></svg>
