<svg id="Layer_1" enable-background="new 0 0 512 512" height="512" viewBox="0 0 512 512" width="512" xmlns="http://www.w3.org/2000/svg"><path d="m437.46 0h-85.189c-17.643 0-31.946 14.303-31.946 31.946s14.303 31.946 31.946 31.946h50.666l-117.752 117.752c-82.229-57.281-195.324-37.057-252.605 45.171s-37.057 195.324 45.171 252.605 195.324 37.057 252.605-45.171c43.419-62.328 43.419-145.105 0-207.434l117.752-117.752v50.666c0 17.643 14.303 31.946 31.946 31.946s31.946-14.303 31.946-31.946v-85.189c0-41.167-33.373-74.54-74.54-74.54zm-255.567 447.241c-64.692 0-117.135-52.443-117.135-117.135s52.443-117.135 117.135-117.135 117.135 52.443 117.135 117.135c-.07 64.663-52.472 117.065-117.135 117.135z"/></svg>