<?xml version="1.0" encoding="UTF-8"?>
<svg xmlns="http://www.w3.org/2000/svg" xmlns:xlink="http://www.w3.org/1999/xlink" version="1.1" id="Capa_1" x="0px" y="0px" viewBox="0 0 512 512" style="enable-background:new 0 0 512 512;" xml:space="preserve" width="512" height="512">
<g>
	<g>
		<path style="fill:none;stroke:#000000;stroke-width:30;stroke-miterlimit:10;" d="M170.084,367.667&#10;&#9;&#9;&#9;C121.6,388.015,83.56,428.678,83.56,497h344.88c0-68.322-38.041-108.985-86.524-129.333"/>
		<path style="fill:none;stroke:#000000;stroke-width:30;stroke-miterlimit:10;" d="M229,129h47.208c62.96,0,114-51.039,114-114v0&#10;&#9;&#9;&#9;H204.693c-38.351,0-66.854,35.489-58.579,72.936v0c4.312,19.515,17.846,35.038,35.408,42.399"/>
		<path style="fill:none;stroke:#000000;stroke-width:30;stroke-miterlimit:10;" d="M117.333,303.351h-33.43&#10;&#9;&#9;&#9;c-22.775,0-41.237-18.462-41.237-41.237v0c0-22.774,18.462-41.237,41.237-41.237h14.779"/>
		<path style="fill:none;stroke:#000000;stroke-width:30;stroke-miterlimit:10;" d="M394.667,303.351h33.43&#10;&#9;&#9;&#9;c22.774,0,41.237-18.462,41.237-41.237v0c0-22.774-18.463-41.237-41.237-41.237h-14.78"/>
		<path style="fill:none;stroke:#000000;stroke-width:30;stroke-miterlimit:10;" d="M203.318,129.004&#10;&#9;&#9;&#9;c-57.781,0-104.624,46.835-104.635,104.615v0C98.683,320.517,169.11,390.965,256,391c86.89-0.035,157.317-70.483,157.317-157.381&#10;&#9;&#9;&#9;v0c-0.011-57.781-46.855-104.615-104.635-104.615H203.318z"/>
		
			<line style="fill:none;stroke:#000000;stroke-width:30;stroke-miterlimit:10;" x1="171.333" y1="220.667" x2="171.333" y2="250.667"/>
		
			<line style="fill:none;stroke:#000000;stroke-width:30;stroke-miterlimit:10;" x1="340.667" y1="220.667" x2="340.667" y2="250.667"/>
		<path style="fill:none;stroke:#000000;stroke-width:30;stroke-miterlimit:10;" d="M292.958,272&#10;&#9;&#9;&#9;c-7.377,12.753-21.166,21.333-36.958,21.333s-29.581-8.58-36.958-21.333"/>
		<path style="fill:none;stroke:#000000;stroke-width:30;stroke-miterlimit:10;" d="M146.505,60.27&#10;&#9;&#9;&#9;c0,0-131.505-5.266-76.839,165.401"/>
		<path style="fill:none;stroke:#000000;stroke-width:30;stroke-miterlimit:10;" d="M383.222,61.76&#10;&#9;&#9;&#9;c33.882,5.785,100.906,33.432,59.112,163.911"/>
		<g>
			<polyline style="fill:none;stroke:#000000;stroke-width:30;stroke-miterlimit:10;" points="354.865,375.203 256,487.657 &#10;&#9;&#9;&#9;&#9;156.085,374.008 &#9;&#9;&#9;"/>
		</g>
	</g>
	<line style="fill:none;stroke:#000000;stroke-width:30;stroke-miterlimit:10;" x1="166.72" y1="496" x2="166.72" y2="378"/>
	<line style="fill:none;stroke:#000000;stroke-width:30;stroke-miterlimit:10;" x1="345.28" y1="496" x2="345.28" y2="378"/>
</g>















</svg>
