<svg id="Layer_1" enable-background="new 0 0 512.041 512.041" height="512" viewBox="0 0 512.041 512.041" width="512" xmlns="http://www.w3.org/2000/svg"><g><path d="m175.883 423.77v68.279c0 11.041 8.951 19.992 19.992 19.992h120.291c11.041 0 19.992-8.951 19.992-19.992v-68.279z" fill="#ffbfbc"/><path d="m256.009 512.041h60.157c11.041 0 19.992-8.951 19.992-19.992v-68.279h-80.15v88.271z" fill="#ff9aa7"/><path d="m107.153 217.32h-68.411c-21.385 0-38.721 17.336-38.721 38.721 0 21.385 17.336 38.721 38.721 38.721h72.887z" fill="#ffbfbc"/><path d="m473.3 217.32h-66.82l-4.717 77.442h71.537c21.385 0 38.721-17.336 38.721-38.721 0-21.385-17.336-38.721-38.721-38.721z" fill="#ff9aa7"/><path d="m69.994 159.261v109.017c0 102.731 83.28 186.01 186.01 186.01 102.731 0 186.01-83.28 186.01-186.01v-109.017c0-87.957-71.304-150.986-159.261-150.986h-53.499c-87.956 0-159.26 63.029-159.26 150.986z" fill="#ffe1d0"/><circle cx="161.198" cy="222.15" fill="#093330" r="17.395"/><path d="m276.878 0h-20.869v454.288c102.729-.002 186.007-83.281 186.007-186.01v-103.141c-.001-91.202-73.935-165.137-165.138-165.137z" fill="#ffbfbc"/><circle cx="347.333" cy="222.15" fill="#001200" r="17.395"/><g><path d="m260.15 394.849h-8.763c-33.477 0-60.615-27.138-60.615-60.615v-3.071c0-4.859 3.939-8.798 8.798-8.798h109.938c6.217 0 11.257 5.04 11.257 11.257v.612c-.001 33.477-27.139 60.615-60.615 60.615z" fill="#ff5579"/><path d="m313.722 322.366h-57.713v72.484h3.618c33.766 0 61.138-27.373 61.138-61.138v-4.303c-.001-3.89-3.154-7.043-7.043-7.043z" fill="#ff004c"/></g><g><path d="m320.754 117.867c3.824-3.824 10.027-3.943 13.929-.198 31.593 30.318 67.447 40.658 107.332 40.195v-19.342c0-76.504-62.018-138.522-138.522-138.522h-94.977c-76.503 0-138.522 62.018-138.522 138.522v15.364h163.804c32.615-.001 63.894-12.957 86.956-36.019z" fill="#ce5544"/></g><path d="m256.009 151.855c24.358-4.474 46.989-16.231 64.745-33.988 3.824-3.824 10.027-3.943 13.929-.198 31.593 30.318 67.447 40.658 107.332 40.195v-19.342c0-76.504-62.018-138.522-138.522-138.522h-47.485v151.855z" fill="#ad3e32"/></g></svg>