<svg version="1.1" id="Capa_1" xmlns="http://www.w3.org/2000/svg" xmlns:xlink="http://www.w3.org/1999/xlink" x="0px" y="0px" viewBox="0 0 512 512" style="enable-background:new 0 0 512 512;" xml:space="preserve" width="300" height="300" xmlns:svgjs="http://svgjs.dev/svgjs"><g width="100%" height="100%" transform="matrix(1,0,0,1,0,0)"><circle style="" cx="256" cy="256" r="256" fill="#ffffff" fill-opacity="1" data-original-color="#ff6838ff" stroke="none" stroke-opacity="1"/><path style="" d="M136.254,268.367l222.261,222.261c87.786-38.411,149.865-124.63,153.315-225.742L341.301,94.357&#10;&#9;L136.254,268.367z" fill="#ffffff" fill-opacity="1" data-original-color="#e86035ff" stroke="none" stroke-opacity="1"/><path style="" d="M256,322.949L256,322.949c-66.134,0-119.746-53.612-119.746-119.746v-24.816&#10;&#9;c0-66.134,53.612-119.746,119.746-119.746l0,0c66.134,0,119.746,53.612,119.746,119.746v24.816&#10;&#9;C375.746,269.337,322.134,322.949,256,322.949z" fill="#4d4d4d" fill-opacity="1" data-original-color="#4d4d4dff" stroke="none" stroke-opacity="1"/><path style="" d="M256,58.641L256,58.641c-0.016,0-0.032,0.001-0.048,0.001v264.307c0.016,0,0.032,0.001,0.047,0.001&#10;&#9;l0,0c66.134,0,119.746-53.612,119.746-119.746v-24.816C375.746,112.253,322.134,58.641,256,58.641z" fill="#333333" fill-opacity="1" data-original-color="#333333ff" stroke="none" stroke-opacity="1"/><circle style="" cx="156.85" cy="247.91" r="29.03" fill="#ffcdbe" fill-opacity="1" data-original-color="#ffcdbeff" stroke="none" stroke-opacity="1"/><circle style="" cx="355.15" cy="247.91" r="29.03" fill="#faa68e" fill-opacity="1" data-original-color="#faa68eff" stroke="none" stroke-opacity="1"/><path style="" d="M256,512c60.195,0,115.529-20.786,159.24-55.559l-6.33-58.187&#10;&#9;c-1.638-15.054-13.399-27.014-28.423-28.904l-87.328-10.099v-52.283h-74.317v52.283l-87.328,10.099&#10;&#9;c-15.025,1.89-26.786,13.85-28.423,28.904l-6.33,58.186C140.471,491.213,195.805,512,256,512z" fill="#ffcdbe" fill-opacity="1" data-original-color="#ffcdbeff" stroke="none" stroke-opacity="1"/><path style="" d="M415.24,456.441l-6.33-58.187c-1.638-15.054-13.399-27.014-28.423-28.904l-87.328-10.099v-52.283&#10;&#9;h-37.206V512c0.016,0,0.032,0,0.048,0C316.195,512,371.529,491.214,415.24,456.441z" fill="#faa68e" fill-opacity="1" data-original-color="#faa68eff" stroke="none" stroke-opacity="1"/><path style="" d="M256,342.726L256,342.726c-56.553,0-102.398-45.845-102.398-102.398v-58.513&#10;&#9;c0-56.553,45.845-102.398,102.398-102.398l0,0c56.553,0,102.398,45.845,102.398,102.398v58.513&#10;&#9;C358.398,296.881,312.553,342.726,256,342.726z" fill="#ffdecf" fill-opacity="1" data-original-color="#ffdecfff" stroke="none" stroke-opacity="1"/><path style="" d="M256,79.418L256,79.418c-0.016,0-0.032,0.001-0.048,0.001v263.308c0.016,0,0.032,0.001,0.047,0.001&#10;&#9;l0,0c56.553,0,102.398-45.845,102.398-102.398v-58.513C358.398,125.263,312.553,79.418,256,79.418z" fill="#ffbeaa" fill-opacity="1" data-original-color="#ffbeaaff" stroke="none" stroke-opacity="1"/><path style="" d="M256,314.323c-16.752,0-30.38-13.629-30.38-30.38h12c0,10.135,8.246,18.38,18.38,18.38&#10;&#9;s18.38-8.245,18.38-18.38h12C286.38,300.694,272.752,314.323,256,314.323z" fill="#ff9451" fill-opacity="1" data-original-color="#ff9451ff" stroke="none" stroke-opacity="1"/><path style="" d="M274.38,283.942c0,10.135-8.246,18.38-18.38,18.38c-0.016,0-0.032-0.002-0.048-0.002v12.001&#10;&#9;c0.016,0,0.032,0.001,0.048,0.001c16.752,0,30.38-13.629,30.38-30.38H274.38z" fill="#f7674f" fill-opacity="1" data-original-color="#f7674fff" stroke="none" stroke-opacity="1"/><path style="" d="M347.491,205.453v70.231c8.395,0,15.2-6.805,15.2-15.2V159.339c0-24.831-13.318-47.755-34.89-60.053&#10;&#9;l-12.67-7.223c-3.445-14.576-17.283-25.678-33.743-23.923l-41.564,4.432c-56.733,6.049-99.767,53.916-99.767,110.971v27.529&#10;&#9;l9.251-2.849v52.261c0,8.395,6.805,15.2,15.2,15.2l0,0v-26.477c0-25.817,20.929-46.746,46.746-46.746H269.5&#10;&#9;c20.711,0,37.5-16.789,37.5-37.5l0,0l0,0C329.363,164.962,347.491,183.091,347.491,205.453z" fill="#4d4d4d" fill-opacity="1" data-original-color="#4d4d4dff" stroke="none" stroke-opacity="1"/><path style="" d="M327.802,99.286l-12.67-7.223c-3.445-14.576-17.283-25.678-33.743-23.923l-25.436,2.712v131.609&#10;&#9;H269.5c20.711,0,37.5-16.789,37.5-37.5l0,0l0,0c22.363,0,40.491,18.129,40.491,40.491v70.231c8.395,0,15.2-6.805,15.2-15.2V159.339&#10;&#9;C362.692,134.508,349.374,111.584,327.802,99.286z" fill="#333333" fill-opacity="1" data-original-color="#333333ff" stroke="none" stroke-opacity="1"/><path style="" d="M408.91,398.255c-1.638-15.054-13.399-27.014-28.423-28.904l-82.82-9.578&#10;&#9;c-7.925,14.907-23.607,25.061-41.667,25.061s-33.742-10.154-41.667-25.061l-82.82,9.578c-15.025,1.89-26.786,13.85-28.423,28.904&#10;&#9;l-6.33,58.186C140.471,491.213,195.805,512,256,512s115.529-20.786,159.24-55.559L408.91,398.255z" fill="#4694c6" fill-opacity="1" data-original-color="#0066aaff" stroke="none" stroke-opacity="1"/><path style="" d="M415.24,456.441l-6.33-58.187c-1.638-15.054-13.399-27.014-28.423-28.904l-82.82-9.578&#10;&#9;c-7.925,14.907-23.607,25.061-41.667,25.061c-0.016,0-0.032-0.001-0.048-0.001V512c0.016,0,0.032,0,0.048,0&#10;&#9;C316.195,512,371.529,491.214,415.24,456.441z" fill="#1e2d64" fill-opacity="1" data-original-color="#1e2d64ff" stroke="none" stroke-opacity="1"/><path style="" d="M212.531,257.414L212.531,257.414c-4.491,0-8.131-3.641-8.131-8.131v-11.899&#10;&#9;c0-4.491,3.641-8.131,8.131-8.131l0,0c4.491,0,8.131,3.64,8.131,8.131v11.899C220.662,253.774,217.022,257.414,212.531,257.414z" fill="#4d4d4d" fill-opacity="1" data-original-color="#4d4d4dff" stroke="none" stroke-opacity="1"/><path style="" d="M299.469,257.414L299.469,257.414c-4.491,0-8.131-3.641-8.131-8.131v-11.899&#10;&#9;c0-4.491,3.641-8.131,8.131-8.131l0,0c4.491,0,8.131,3.64,8.131,8.131v11.899C307.601,253.774,303.96,257.414,299.469,257.414z" fill="#333333" fill-opacity="1" data-original-color="#333333ff" stroke="none" stroke-opacity="1"/><g>
</g><g>
</g><g>
</g><g>
</g><g>
</g><g>
</g><g>
</g><g>
</g><g>
</g><g>
</g><g>
</g><g>
</g><g>
</g><g>
</g><g>
</g></g></svg>