<svg id="Layer_1" enable-background="new 0 0 479.989 479.989" height="512" viewBox="0 0 479.989 479.989" width="512" xmlns="http://www.w3.org/2000/svg"><g><path d="m436.12 308.655c-24.352 13.036-51.917 20.053-79.713 20.295-94.885.857-173.606-76.155-173.935-171.794-.149-43.275 15.802-84.709 44.916-116.67 15.687-17.222.546-44.317-22.313-40.033-53.683 10.078-102.981 38.697-138.814 80.585-80.076 93.606-78.101 235.74 10.977 326.608 116.731 119.078 320.009 87.415 392.156-67.486 9.828-21.1-12.775-42.477-33.274-31.505z"/><path d="m260.236 123.01h8v8c0 4.418 3.582 8 8 8s8-3.582 8-8v-8h8c4.418 0 8-3.582 8-8s-3.582-8-8-8h-8v-8c0-4.418-3.582-8-8-8s-8 3.582-8 8v8h-8c-4.418 0-8 3.582-8 8s3.581 8 8 8z"/><path d="m320.236 243.01h8v8c0 4.418 3.582 8 8 8s8-3.582 8-8v-8h8c4.418 0 8-3.582 8-8s-3.582-8-8-8h-8v-8c0-4.418-3.582-8-8-8s-8 3.582-8 8v8h-8c-4.418 0-8 3.582-8 8s3.581 8 8 8z"/><path d="m390.236 133.01h8v8c0 4.418 3.582 8 8 8s8-3.582 8-8v-8h8c4.418 0 8-3.582 8-8s-3.582-8-8-8h-8v-8c0-4.418-3.582-8-8-8s-8 3.582-8 8v8h-8c-4.418 0-8 3.582-8 8s3.581 8 8 8z"/></g></svg>