<svg viewBox="0 0 512 512" xmlns="http://www.w3.org/2000/svg" xmlns:xlink="http://www.w3.org/1999/xlink"><linearGradient id="linear-gradient" gradientUnits="userSpaceOnUse" x1="405.2" x2="165.59" y1="375.94" y2="136.33"><stop offset="0" stop-color="#34344f"/><stop offset=".26" stop-color="#3b3b57"/><stop offset=".66" stop-color="#50506d"/><stop offset="1" stop-color="#666684"/></linearGradient><g id="Layer_18" data-name="Layer 18"><path d="m496.52 129.86c-13.43-49.48-64.89-100.94-114.37-114.37-30.33-7.57-70.98-15.36-126.15-15.49-55.16.14-95.81 7.92-126.14 15.49-49.48 13.44-100.94 64.89-114.37 114.37-7.57 30.33-15.35 70.98-15.49 126.14.14 55.17 7.92 95.82 15.49 126.15 13.43 49.48 64.89 100.93 114.37 114.37 30.33 7.57 71 15.35 126.14 15.49 55.17-.14 95.82-7.92 126.15-15.49 49.48-13.44 100.94-64.89 114.37-114.37 7.57-30.33 15.35-71 15.49-126.15-.14-55.16-7.92-95.81-15.49-126.14z" fill="#e6f1f4"/><path d="m336.69 256a142 142 0 0 1 53.83-111.46 14.61 14.61 0 0 0 0-23 169.53 169.53 0 0 0 -103.1-35.78c-93.8-.7-171.54 76.44-171.54 170.24a170.24 170.24 0 0 0 274.57 134.52 14.64 14.64 0 0 0 .07-23.06 142 142 0 0 1 -53.83-111.46z" fill="url(#linear-gradient)"/></g></svg>