<svg id="Layer_1" enable-background="new 0 0 45 45" height="45" viewBox="0 0 45 45" width="45" xmlns="http://www.w3.org/2000/svg"><g><path d="m22.634 8.349c-7.803 0-14.15 6.348-14.15 14.15s6.348 14.149 14.15 14.149 14.15-6.348 14.15-14.149c0-7.803-6.347-14.15-14.15-14.15zm0 24.435v-20.57c5.672 0 10.285 4.614 10.285 10.285 0 5.672-4.613 10.285-10.285 10.285z"/><path d="m22.634 6.331c.818 0 1.479-.662 1.479-1.479v-3.287c0-.818-.661-1.479-1.479-1.479-.817 0-1.479.66-1.479 1.479v3.287c0 .817.661 1.479 1.479 1.479z"/><path d="m9.071 10.972c.577.578 1.514.578 2.092 0 .577-.578.577-1.514 0-2.092l-2.325-2.324c-.577-.578-1.514-.578-2.092 0-.577.578-.577 1.515 0 2.092z"/><path d="m4.853 20.886h-3.288c-.816 0-1.479.662-1.479 1.479 0 .816.662 1.479 1.479 1.479h3.287c.817 0 1.479-.663 1.479-1.479.001-.817-.661-1.479-1.478-1.479z"/><path d="m8.882 33.837-2.325 2.324c-.577.578-.577 1.514 0 2.092s1.515.578 2.091 0l2.325-2.324c.577-.578.578-1.514 0-2.092-.577-.578-1.515-.578-2.091 0z"/><path d="m22.365 38.667c-.816 0-1.479.662-1.478 1.479v3.287c0 .815.661 1.479 1.478 1.479s1.479-.663 1.479-1.479v-3.287c.001-.817-.661-1.479-1.479-1.479z"/><path d="m35.93 34.027c-.577-.577-1.514-.579-2.092 0-.577.576-.577 1.514 0 2.091l2.325 2.324c.576.577 1.514.578 2.09 0 .578-.576.577-1.515 0-2.091z"/><path d="m43.435 21.155-3.287-.002c-.816.002-1.479.663-1.479 1.479s.662 1.479 1.479 1.479h3.287c.816 0 1.479-.663 1.479-1.479 0-.815-.665-1.477-1.479-1.477z"/><path d="m36.119 11.161 2.325-2.324c.576-.577.576-1.516 0-2.091-.577-.577-1.516-.576-2.092 0l-2.324 2.323c-.577.578-.579 1.514 0 2.092.576.576 1.514.576 2.091 0z"/></g></svg>