<svg id="Layer_1" enable-background="new 0 0 512 512" viewBox="0 0 512 512" xmlns="http://www.w3.org/2000/svg"><g id="Layer_2_00000087397014114511256200000001366624815224695703_"><g id="Layer_1_copy_12"><g id="_86" fill="#7995ff"><path d="m164.6 134.8c0-50.3 40.2-92.1 90.5-92.5 50.5-.4 91.8 40.2 92.3 90.7v.7 18.2c0 11.7 9.4 21.1 21.1 21.1 11.7 0 21.1-9.4 21.1-21.1v-16.7c0-74-59.3-134.9-133.1-135.2s-133.8 59.3-134.1 133.1v.5 52h42.2z"/><path d="m418.7 194.6h-325.5c-30.5 0-55.2 24.7-55.2 55.2v207.1c0 30.5 24.7 55.2 55.2 55.2h325.5c30.5 0 55.2-24.7 55.2-55.2v-207.1c0-30.5-24.7-55.2-55.2-55.2zm-284.3 195.6c-20.4 0-36.9-16.5-36.9-36.9s16.5-36.9 36.9-36.9 36.9 16.5 36.9 36.9-16.6 36.9-36.9 36.9zm121.6 0c-20.4 0-36.9-16.5-36.9-36.9s16.5-36.9 36.9-36.9 36.9 16.5 36.9 36.9-16.5 36.9-36.9 36.9zm121.6 0c-20.4 0-36.9-16.5-36.9-36.9s16.5-36.9 36.9-36.9 36.9 16.5 36.9 36.9-16.5 36.9-36.9 36.9z"/></g></g></g></svg>