<svg id="Capa_1" enable-background="new 0 0 569.032 569.032" height="512" viewBox="0 0 569.032 569.032" width="512" xmlns="http://www.w3.org/2000/svg"><g><g id="Layer_2_00000096026713512899633620000010575669074165030540_"><path d="m502.052 28.888c-38.688-38.517-101.232-38.517-139.92 0l-14.52 14.52-15.312 15.576-12.672 12.408-251.064 251.064c-5.877 5.921-10.07 13.303-12.144 21.384l-24.816 99.528c-6.342 24.685 8.527 49.837 33.211 56.18 3.726.957 7.557 1.445 11.405 1.452 3.819-.048 7.624-.49 11.352-1.32l99.528-25.08c8.169-1.852 15.608-6.077 21.384-12.144l263.736-263.473 29.832-29.832c38.6-38.788 38.6-101.476 0-140.263zm-27.984 112.2-15.84 15.84-27.984 27.984-238.392 238.128-11.352 11.352c-.72.939-1.748 1.594-2.904 1.848l-22.704 5.808-76.824 19.008c-2.244.546-4.613-.046-6.336-1.584-1.738-1.609-2.449-4.045-1.848-6.336l19.272-76.798 5.808-22.73c.198-1.191.75-2.295 1.584-3.168l11.352-11.352 238.392-238.128 15.312-15.576 12.672-12.408 15.84-16.104c23.212-23.183 60.822-23.159 84.004.052 11.111 11.125 17.358 26.201 17.372 41.924.068 15.842-6.207 31.053-17.424 42.24z"/><path d="m100.596 202.669h336.943v118.721h-336.943z" transform="matrix(.708 -.707 .707 .708 -106.477 266.796)"/><path d="m205.316 464.488c-3.636 3.826-8.715 5.943-13.992 5.834-5.257.009-10.298-2.093-13.992-5.834l-110.88-110.88c-8-7.455-8.443-19.984-.988-27.984s19.984-8.443 27.984-.988c.341.318.67.647.988.988l110.88 110.88c7.728 7.467 7.939 19.784.472 27.512-.155.16-.312.317-.472.472z"/><path d="m472.484 198.64-.264.264c-7.655 7.728-20.124 7.787-27.852.132-.044-.044-.088-.088-.132-.132l-13.992-13.966-83.952-83.978-13.992-13.992c-2.24-2.071-3.881-4.706-4.752-7.63-3.494-10.362 2.073-21.595 12.435-25.089 7.117-2.4 14.98-.567 20.301 4.735l5.808 5.808 8.184 8.184 83.952 83.978 13.992 13.966c7.592 7.638 7.709 19.938.264 27.72z"/><path d="m196.63 130.237c-10.935-.01-19.792-8.882-19.783-19.817.005-5.241 2.087-10.266 5.791-13.975l76.27-76.296c18.073-17.972 47.267-17.972 65.34 0l37.33 37.33c7.862 7.601 8.074 20.135.473 27.997s-20.135 8.074-27.997.473c-.165-.159-.327-.322-.486-.487l-37.33-37.303c-2.561-2.573-6.723-2.584-9.296-.023-.008.008-.015.015-.023.023l-76.322 76.296c-3.704 3.706-8.729 5.786-13.967 5.782z"/><path d="m522.116 569.032h-290.4c-10.935 0-19.8-8.865-19.8-19.8s8.865-19.8 19.8-19.8h290.4c10.935 0 19.8 8.865 19.8 19.8s-8.865 19.8-19.8 19.8z"/><path d="m152.516 569.032h-105.6c-10.935 0-19.8-8.865-19.8-19.8s8.865-19.8 19.8-19.8h105.6c10.935 0 19.8 8.865 19.8 19.8s-8.865 19.8-19.8 19.8z"/></g></g></svg>