<svg id="Layer_1" height="512" viewBox="0 0 24 24" width="512" xmlns="http://www.w3.org/2000/svg" xmlns:xlink="http://www.w3.org/1999/xlink" data-name="Layer 1"><linearGradient id="linear-gradient" gradientUnits="userSpaceOnUse" x1="19.32" x2="4.392" y1=".258" y2="26.113"><stop offset="0" stop-color="#ea5a6b"/><stop offset=".1812" stop-color="#b9569b"/><stop offset=".3509" stop-color="#9052c1"/><stop offset=".4385" stop-color="#8151d0"/><stop offset=".4832" stop-color="#7d51d4"/><stop offset=".8058" stop-color="#634fed"/><stop offset="1" stop-color="#5a4ef6"/></linearGradient><path d="m1 24a1.0009 1.0009 0 0 1 -.9492-1.3154l1.0952-3.2969a8.892 8.892 0 0 1 -1.146-4.3877 9.03 9.03 0 0 1 7.7783-8.918 1 1 0 0 1 .27 1.9825 7.0216 7.0216 0 0 0 -6.0483 6.9355 6.8858 6.8858 0 0 0 1.0815 3.7266 1 1 0 0 1 .1074.8554l-.666 2.0049 2.3271-.583a1.0028 1.0028 0 0 1 .7383.1006 6.8966 6.8966 0 0 0 3.4117.8955 7.0067 7.0067 0 0 0 6.875-5.6758 1 1 0 1 1 1.9638.377 8.9922 8.9922 0 0 1 -12.8778 6.3369l-3.7178.9319a.9842.9842 0 0 1 -.2432.03zm9.246-7.0381a2.1456 2.1456 0 0 1 .5264-.541 3 3 0 1 0 -4.7724-2.4209 1 1 0 0 0 2 0 1 1 0 1 1 1.5894.8076 4.15 4.15 0 0 0 -1.0122 1.0508 1 1 0 0 0 1.6689 1.1035zm-1.246 1.0381a1 1 0 1 0 1 1 1 1 0 0 0 -1-1zm14-4a.9842.9842 0 0 1 -.2431-.03l-2.6987-.6758a7.0048 7.0048 0 1 1 3.1039-2.9775l.7871 2.3682a1 1 0 0 1 -.9492 1.3151zm-6-12a5 5 0 0 0 0 10 4.933 4.933 0 0 0 2.436-.6387.988.988 0 0 1 .7373-.1006l1.3037.3262-.3565-1.0713a1 1 0 0 1 .1075-.8556 4.9155 4.9155 0 0 0 .772-2.66 5.0058 5.0058 0 0 0 -5-5zm.207 7.0654 2-2a1 1 0 0 0 -1.4141-1.414l-1.2929 1.2929-.293-.2929a1 1 0 0 0 -1.4141 1.414l1 1a1 1 0 0 0 1.4141 0z" fill="url(#linear-gradient)"/></svg>