<svg id="Icon" viewBox="0 0 64 64" xmlns="http://www.w3.org/2000/svg"><rect height="38.5" rx=".75" width="21.5" x="21.25" y="24.25"/><path d="m23.09766 10.55078 3.22949 2.34668c.19336.14014.27344.38721.2002.61426l-1.2334 3.79639c-.28027.86035.01172 1.75977.74414 2.29199.36523.26563.78516.39893 1.20508.39893.41895 0 .83887-.1333 1.2041-.39893l3.23047-2.34668c.19141-.14063.45215-.14014.64551.00049l3.22852 2.34619c.73242.53076 1.67969.53271 2.41016 0 .73242-.53223 1.02441-1.43164.74414-2.29199l-1.2334-3.7959c-.07324-.22754.00684-.47461.2002-.61475l3.22949-2.34668c.73242-.53174 1.02441-1.43115.74512-2.2915s-1.04492-1.4165-1.9502-1.4165h-3.99121c-.23926 0-.44922-.15234-.52344-.37988l-1.2334-3.79688c-.2793-.86035-1.04492-1.41602-1.94922-1.41602s-1.66992.55566-1.94922 1.41602l-1.2334 3.79688c-.07422.22754-.28418.37988-.52344.37988h-3.99121c-.90527 0-1.6709.55615-1.9502 1.4165s.0127 1.75977.74512 2.2915z"/><path d="m1.25 45v17c0 .41406.33594.75.75.75h17.75v-18.5h-17.75c-.41406 0-.75.33594-.75.75z"/><path d="m62 34.25h-17.75v28.5h17.75c.41406 0 .75-.33594.75-.75v-27c0-.41406-.33594-.75-.75-.75z"/></svg>