<svg clip-rule="evenodd" fill-rule="evenodd" height="512" stroke-linejoin="round" stroke-miterlimit="2" viewBox="0 0 134 134" width="512" xmlns="http://www.w3.org/2000/svg"><path d="m86.143 98.06 32.845 32.834c3.252 3.251 8.533 3.25 11.785-.002 3.251-3.253 3.25-8.534-.002-11.786l-32.823-32.811c6.603-8.981 10.506-20.072 10.506-32.068 0-29.929-24.298-54.227-54.227-54.227s-54.227 24.298-54.227 54.227 24.298 54.227 54.227 54.227c11.927 0 22.959-3.858 31.916-10.394zm-31.916-81.393c20.73 0 37.561 16.83 37.561 37.56s-16.831 37.561-37.561 37.561-37.56-16.831-37.56-37.561 16.83-37.56 37.56-37.56z"/></svg>