<?xml version="1.0" encoding="UTF-8"?>
<!-- Generator: Adobe Illustrator 24.3.0, SVG Export Plug-In . SVG Version: 6.00 Build 0)  -->
<svg xmlns="http://www.w3.org/2000/svg" xmlns:xlink="http://www.w3.org/1999/xlink" version="1.1" id="Capa_1" x="0px" y="0px" viewBox="0 0 512 512" style="enable-background:new 0 0 512 512;" xml:space="preserve" width="512" height="512">
<g>
	<g id="Layer_2_6_">
		<g id="Layer_1-2_6_">
			<g id="find_in_page">
				<path d="M420.881,0H91.119C40.815,0.048,0.048,40.815,0,91.119v329.763C0.048,471.185,40.815,511.952,91.119,512h329.763      c50.304-0.048,91.071-40.815,91.119-91.119V91.119C511.952,40.815,471.185,0.048,420.881,0z M199.593,69.424h17.356      c11.982,0,21.695,9.713,21.695,21.695s-9.713,21.695-21.695,21.695h-17.356c-11.982,0-21.695-9.713-21.695-21.695      S187.611,69.424,199.593,69.424z M104.136,69.424h17.356c11.982,0,21.695,9.713,21.695,21.695s-9.713,21.695-21.695,21.695      h-17.356c-11.982,0-21.695-9.713-21.695-21.695S92.154,69.424,104.136,69.424z M468.61,420.881      c-0.048,26.34-21.389,47.681-47.729,47.729H91.119c-26.34-0.048-47.681-21.389-47.729-47.729V182.237h425.22V420.881z"/>
				<path d="M366.818,406.91l-50.679-50.679c9.506-15.164,14.558-32.695,14.579-50.593c0.047-53.007-42.886-96.016-95.893-96.064      c-53.007-0.047-96.016,42.886-96.064,95.893s42.886,96.016,95.893,96.064c0.202,0,0.404,0,0.606-0.001      c17.897-0.021,35.429-5.073,50.593-14.579l50.679,50.679c8.497,8.45,22.223,8.45,30.72,0      C375.536,428.996,375.342,415.307,366.818,406.91z M182.237,305.638c-0.048-29.044,23.458-52.627,52.502-52.675      c29.044-0.048,52.627,23.458,52.675,52.502c0.048,29.044-23.458,52.627-52.502,52.675c-0.029,0-0.058,0-0.087,0      C205.836,358.092,182.333,334.628,182.237,305.638z"/>
			</g>
		</g>
	</g>
</g>















</svg>
