<svg id="Capa_1" enable-background="new 0 0 567.6 567.6" height="512" viewBox="0 0 567.6 567.6" width="512" xmlns="http://www.w3.org/2000/svg"><g><g id="Layer_2_00000051372520614384018100000014737766421951275695_"><path d="m468.6 0h-369.6c-40.084.029-72.571 32.516-72.6 72.6v422.4c.029 40.084 32.516 72.571 72.6 72.6h369.6c40.084-.029 72.571-32.516 72.6-72.6v-422.4c-.029-40.084-32.516-72.571-72.6-72.6zm-197.208 341.88-70.409 70.33c-7.736 7.706-20.248 7.706-27.984 0l-35.191-35.218c-7.455-8-7.013-20.529.988-27.984 7.604-7.086 19.392-7.086 26.996 0l21.12 21.12 56.417-56.417c7.779-7.749 20.367-7.726 28.116.053s7.726 20.367-.053 28.116zm0-158.4-70.409 70.33c-7.736 7.706-20.248 7.706-27.984 0l-35.191-35.218c-7.455-8-7.012-20.529.988-27.984 7.604-7.085 19.392-7.085 26.996 0l21.12 21.12 56.496-56.338c7.757-7.728 20.309-7.704 28.037.053 7.727 7.757 7.704 20.309-.053 28.037zm170.808 208.111h-105.6c-10.935 0-19.8-8.865-19.8-19.8s8.865-19.8 19.8-19.8h105.6c10.935 0 19.8 8.865 19.8 19.8s-8.865 19.8-19.8 19.8zm0-158.4h-105.6c-10.935 0-19.8-8.865-19.8-19.8s8.865-19.8 19.8-19.8h105.6c10.935 0 19.8 8.865 19.8 19.8s-8.865 19.8-19.8 19.8z"/></g></g></svg>