<svg id="Layer_1" height="512" viewBox="0 0 512 512" width="512" xmlns="http://www.w3.org/2000/svg" data-name="Layer 1"><g fill-rule="evenodd"><path d="m321.727 305.714a92.9 92.9 0 0 1 92.814 92.807v18.344l-.6.589a225.585 225.585 0 0 1 -315.878 0l-.6-.589v-18.344a92.9 92.9 0 0 1 92.806-92.807z" fill="#d6edff"/><path d="m199.607 172.4a56.395 56.395 0 1 1 56.393 56.366 56.485 56.485 0 0 1 -56.393-56.366z" fill="#d6edff"/><path d="m256 117.956a54.406 54.406 0 1 1 -54.394 54.444 54.486 54.486 0 0 1 54.394-54.444zm0 140.818a86.377 86.377 0 1 0 -86.394-86.374 86.47 86.47 0 0 0 86.394 86.374zm0-226.767c-123.507 0-224 100.452-224 223.981a222.6 222.6 0 0 0 37 123.171 122.972 122.972 0 0 1 121.268-103.453h131.459a122.972 122.972 0 0 1 121.278 103.453 222.534 222.534 0 0 0 37-123.171c-.005-123.529-100.486-223.981-224.005-223.981zm-156.539 384.018v-17.5a90.9 90.9 0 0 1 90.807-90.807h131.459a90.9 90.9 0 0 1 90.814 90.807v17.5a223.586 223.586 0 0 1 -313.08 0zm156.539 95.951c141.161 0 256-114.813 256-255.988s-114.841-255.988-256-255.988-256 114.812-256 255.988 114.836 255.988 256 255.988z" fill="#515dff"/></g></svg>