<svg id="Layer_1" height="512" viewBox="0 0 24 24" width="512" xmlns="http://www.w3.org/2000/svg" xmlns:xlink="http://www.w3.org/1999/xlink" data-name="Layer 1"><linearGradient id="linear-gradient" gradientUnits="userSpaceOnUse" x1="12" x2="12" y1="22" y2="2"><stop offset="0" stop-color="#0e18dc"/><stop offset=".125" stop-color="#2618dd"/><stop offset=".548" stop-color="#7317df"/><stop offset=".85" stop-color="#a316e0"/><stop offset="1" stop-color="#b516e1"/></linearGradient><path d="m16.707 9.293a1 1 0 0 1 0 1.414l-5 5a1 1 0 0 1 -1.262.125l-3-2a1 1 0 0 1 1.11-1.664l2.318 1.545 4.42-4.42a1 1 0 0 1 1.414 0zm5.293 2.707a10 10 0 1 1 -10-10 10.011 10.011 0 0 1 10 10zm-2 0a8 8 0 1 0 -8 8 8.009 8.009 0 0 0 8-8z" fill="url(#linear-gradient)"/></svg>