<?xml version="1.0" encoding="UTF-8" standalone="no"?>
<!-- Created with Inkscape (http://www.inkscape.org/) -->

<svg
   version="1.1"
   id="svg831"
   xml:space="preserve"
   width="32"
   height="32"
   viewBox="0 0 32 32"
   xmlns="http://www.w3.org/2000/svg"
   xmlns:svg="http://www.w3.org/2000/svg"><defs
     id="defs835"><clipPath
       clipPathUnits="userSpaceOnUse"
       id="clipPath845"><path
         d="M 0,24 H 24 V 0 H 0 Z"
         id="path843" /></clipPath></defs><g
     id="g837"
     transform="matrix(1.3333333,0,0,-1.3333333,0,32)"><g
       id="g839"><g
         id="g841"
         clip-path="url(#clipPath845)"><g
           id="g847"
           transform="translate(15,5)"><path
             d="M 0,0 V -3.999 L 5.762,-4 c 1.463,0 2.532,1.382 2.165,2.798 L 6.827,5"
             style="fill:none;stroke:#000000;stroke-width:2;stroke-linecap:butt;stroke-linejoin:miter;stroke-miterlimit:10;stroke-dasharray:none;stroke-opacity:1"
             id="path849" /></g><g
           id="g851"
           transform="translate(11,12.5)"><path
             d="M 0,0 C 0,-0.828 -0.671,-1.5 -1.5,-1.5 -2.329,-1.5 -3,-0.828 -3,0 -3,0.828 -2.329,1.5 -1.5,1.5 -0.671,1.5 0,0.828 0,0"
             style="fill:#000000;fill-opacity:1;fill-rule:nonzero;stroke:none"
             id="path853" /></g><g
           id="g855"
           transform="translate(16,12.5)"><path
             d="M 0,0 C 0,-0.828 -0.671,-1.5 -1.5,-1.5 -2.329,-1.5 -3,-0.828 -3,0 -3,0.828 -2.329,1.5 -1.5,1.5 -0.671,1.5 0,0.828 0,0"
             style="fill:#000000;fill-opacity:1;fill-rule:nonzero;stroke:none"
             id="path857" /></g><g
           id="g859"
           transform="translate(8,2)"><path
             d="M 0,0 H -4.762 C -5.135,0 -5.485,0.169 -5.721,0.458 -5.956,0.746 -6.049,1.121 -5.97,1.512 l 1.151,6.499 C -4.88,8.01 -4.939,8 -5,8 H -6.853 L -7.935,1.885 c -0.194,-0.955 0.048,-1.937 0.665,-2.692 0.617,-0.755 1.531,-1.189 2.507,-1.19 L 2,-2 V 1.998 H 0 Z"
             style="fill:#000000;fill-opacity:1;fill-rule:nonzero;stroke:none"
             id="path861" /></g><g
           id="g863"
           transform="translate(4.0034,3.1826)"><path
             d="M 0,0 -0.004,-0.02 C -0.002,-0.013 -0.001,-0.006 0,0"
             style="fill:#000000;fill-opacity:1;fill-rule:nonzero;stroke:none"
             id="path865" /></g><g
           id="g867"
           transform="translate(13.0278,19.9053)"><path
             d="m 0,0 c -1.538,-2.284 -4.811,-5.469 -9.135,-5.864 l 0.295,1.669 c 0.794,3.644 4.08,6.29 7.812,6.29 l 1,1 -1,1 c -4.666,0 -8.773,-3.308 -9.774,-7.904 l -0.724,-4.096 h 1.498 c 5.598,0 9.988,4.103 11.921,7.236 C 1.314,-0.345 0.676,-0.117 0,0"
             style="fill:#000000;fill-opacity:1;fill-rule:nonzero;stroke:none"
             id="path869" /></g><g
           id="g871"
           transform="translate(12,3.998)"><path
             d="M 0,0 C 3.549,0 7,3.002 8.074,6.045 8.213,6.021 8.354,6.002 8.5,6.002 c 1.381,0 2.5,1.119 2.5,2.5 0,1.227 -0.886,2.243 -2.052,2.455 -0.477,4.522 -4.3,8.045 -8.948,8.045"
             style="fill:none;stroke:#000000;stroke-width:2;stroke-linecap:butt;stroke-linejoin:miter;stroke-miterlimit:10;stroke-dasharray:none;stroke-opacity:1"
             id="path873" /></g><g
           id="g875"
           transform="translate(12,4.998)"><path
             d="M 0,0 C -2.861,0 -5.678,2.322 -6.842,4.705 L -7.352,1.826 C -5.605,-0.316 -2.92,-2 0,-2 l 1,1.002 z"
             style="fill:#000000;fill-opacity:1;fill-rule:nonzero;stroke:none"
             id="path877" /></g></g></g></g></svg>
