<svg id="Capa_1" enable-background="new 0 0 437.734 437.734" height="512" viewBox="0 0 437.734 437.734" width="512" xmlns="http://www.w3.org/2000/svg"><g><path d="m111.569 208.625-15.502 107.857c-1.611 12.869 6.332 24.89 24.89 24.89l107.857-15.502c4.704-.625 9.075-2.772 12.445-6.113 1.723-1.723 170.956-170.799 172.485-172.703 75.157-83.018-43.123-196.255-123.359-123.359-1.891 1.513-170.991 170.773-172.703 172.485-3.341 3.37-5.488 7.74-6.113 12.445zm237.767-163.752c23.802-.312 43.351 18.73 43.663 42.532.003.233.004.465.004.698.013 9.317-3.058 18.375-8.733 25.764l-60.698-60.697c7.446-5.517 16.498-8.432 25.764-8.297zm-195.628 177.07 138.424-138.206 61.57 61.57-138.205 138.425-72.051 10.262z"/><path d="m371.169 243.667v84.605c-.04 36.158-29.342 65.461-65.5 65.5h-196.502c-36.158-.04-65.461-29.342-65.5-65.5v-196.501c.04-36.158 29.342-65.461 65.5-65.5h86.653c12.058 0 21.833-9.775 21.833-21.833s-9.775-21.833-21.833-21.833h-86.653c-60.262.069-109.096 48.904-109.167 109.166v196.501c.071 60.262 48.905 109.096 109.167 109.167h196.501c60.262-.071 109.096-48.905 109.167-109.167v-84.605c0-12.058-9.775-21.833-21.833-21.833s-21.833 9.775-21.833 21.833z"/></g></svg>